inDegrees=yes
name=IK_Results.mot
DataType=double
version=3
OpenSimVersion=4.4-2022-08-12-dcf8e2cb1
endheader
time	TH_x	TH_y	TH_z	TH_transx	TH_transy	TH_transz	SC_y	SC_z	SC_x	AC_y	AC_z	AC_x	GH_y	GH_z	GH_yy	EL_x	PS_y
0	-307.3739817560995	-70.3277731669842	-139.5531562486306	0	0	0	-34.14110272946811	11.63138842774324	24.51255591503688	52.70974659647283	-11.13932600319002	6.775160648446686	35.35689132210479	-0.2040843646037851	8.802236367713618	36.27576683881905	87.83121085678971
0.01	-286.2835042555359	-8.730569872394639	-193.6851101912737	0	0	0	-27.61981156095905	13.61851326899832	37.28138236737117	51.29638001349949	-1.508846874223092	9.269720167984037	17.02457456072551	29.63582215395818	-46.82157266141488	38.18762545020979	87.7116830587333
0.02	-285.3483325173415	-9.191758292833411	-194.3163957658699	0	0	0	-27.91545391229532	13.13190153986462	37.9145494836129	50.64463063120527	-1.114489631759989	9.799944186640841	16.32243590383891	30.33624742770509	-47.56626397352962	38.01220663857925	87.72096518987007
0.03	-284.9878956973351	-8.472568508659222	-192.1935429356761	0	0	0	-28.16714253756357	11.94184637314416	36.32553889571013	49.86447759804366	-3.159648460207098	9.749734537666852	14.69863692455965	28.50388898187637	-49.08748726996603	45.10176751711011	87.30991577586475
0.04	-284.530188381522	-9.270882956686028	-193.0416615200869	0	0	0	-28.5173778464927	11.88721968342241	36.84690462983895	49.45525037806414	-2.641759228807643	9.941942579138589	14.28149687226809	29.21915214166258	-49.46209723646813	46.04499431781206	87.27356962953033
0.05	-284.4950902434597	-9.484362110385351	-192.8670402865482	0	0	0	-27.86670825099575	16.31681791311978	34.68594962045418	53.999140042604	-2.572480363745621	6.824826697020202	19.76262127080858	27.74673860522694	-43.59874647998756	46.48916147638672	87.23769014334474
0.06	-313.8681619709381	-69.17078060394159	-145.6000085600619	0	0	0	-27.22232219624376	17.97266122551036	12.68370109692588	64.82495687712719	-15.86231705007406	5.198961910957998	52.00678052104593	18.95086733305466	-18.95832345608496	30.40912509765166	88.20992643698013
0.07000000000000001	-283.8890429869322	-6.824170258746921	-194.6967790067573	0	0	0	-35.53765125995927	13.10329321755899	30.2113707488143	51.76008576835451	-1.495073339118184	11.52384060373123	29.25108589040477	33.19183758379723	-42.78637465228817	36.75269050659568	87.79238428613925
0.08	-285.546273802481	-2.613693503922238	-196.2701635044791	0	0	0	-34.08519605420242	9.029976308586606	31.26017996723934	50.20138393075788	-4.029699928298657	14.8268800263339	26.12820984456547	33.60631016299745	-48.12900903947112	36.34799612588968	87.80891216423129
0.09	-313.5892849019238	-68.59315839637854	-144.945963609143	0	0	0	-35.41331348471133	13.2989758484075	11.70087905338093	56.79736364182684	-12.57725981207661	3.238226701570185	63.85705883176528	16.36430318666938	-16.74408143744017	30.57949920390266	88.18830621881547
0.09999999999999999	-312.2833762647728	-67.78856340481626	-143.7203665984179	0	0	0	-35.7789266256335	12.59514353647017	11.36998174382956	56.32210670984315	-13.26793606705058	3.688809402700848	63.36974697641914	16.41430748522786	-17.37688837882786	29.4321678549896	88.26289990335151
0.11	-294.5351477484029	-7.111128394747154	-201.2358294328662	0	0	0	-42.73428708982112	15.05404211925347	31.84825126284739	47.10814320401602	0.9560249732677498	9.558561453055921	44.11245937141069	35.34176765401516	-36.16137159231935	36.40886600195054	87.80332985551522
0.12	-293.5115943051112	-9.3757907758824	-203.0585011604443	0	0	0	-44.0129950320566	9.344128104983653	33.43829609369435	42.32153383806868	-2.157828304120634	13.6364271708327	36.57295511011522	37.07212517071459	-45.54786766487187	24.94007632911808	88.55615641318268
0.13	-315.0417923908646	-67.57407313132288	-146.3487694407689	0	0	0	-36.53799111932901	15.95922405524842	11.61228861421008	63.03273236162823	-15.50582312507375	1.40230136393909	66.69242312721863	23.77417461008045	-23.21754869029481	28.25026300777659	88.34025499389574
0.14	-318.2359808314827	-67.43906768045494	-149.887398111944	0	0	0	-36.53778775918833	15.95898427844832	11.56078614527071	62.58258702638765	-15.26635689611235	1.190464594219876	66.33041975142631	23.54849783359505	-23.11937813757194	28.78077340542912	88.27299899882084
0.15	-301.2798116921999	-4.415971326486822	-202.3162053738142	0	0	0	-46.06710942757172	12.8475792240647	29.93212503831936	45.51868897188453	-0.9500487274612739	10.61916664593795	39.58938869077281	33.70475052740102	-49.66370641246608	24.94519229352278	88.56769622195613
0.16	-319.1690151380323	-66.4302560541428	-150.9630961284695	0	0	0	-35.25422642853378	16.26017339532985	12.36477494316862	64.02183416120556	-14.32808953163063	1.150474171219366	68.89718373881104	23.85956741312373	-25.40360511162063	27.90798192627641	88.36643306852514
0.17	-301.2757023629775	-5.296181512121379	-202.7341759855903	0	0	0	-48.29507149434987	12.90082692385084	28.5806043223645	43.70840742534543	-1.583455804101649	9.62504150053875	39.42658852843802	31.45905751474362	-53.37076863900896	35.25655129040394	87.90009814528848
